# xmcd
#
# Track frame offsets: 
#        187
#        21955
#        30465
#        46075
#        67890
#        87740
#        95477
#        107935
#        125222
#        149140
#        175212
#        193465
#        233032
#        255670
#        264072
#        287147
#
# Disc length: 4204 seconds
#
# Revision: 1
# Processed by: cddbd v1.5.1PL2 Copyright (c) Steve Scherf et al.
# Submitted via: ExactAudioCopy v0.95b3
#
DISCID=ef106a10
DTITLE=Vladimir Ashkenazy - CHANSON DE L'ADIEU - CHOPIN PIANO FAVOURIT
DTITLE=ES
DYEAR=1995
DGENRE=Classical
TTITLE0=Waltz No.1 In E Flat Major Op.18 [Grande Valse Brillante]
TTITLE1=Waltz No.6 In D Flat Major Op.64-1 [Petit Chien]
TTITLE2=Waltz No.7 In C Sharp Minor Op64-2
TTITLE3=Impromptu No.4 In C Sharp Minor Op.66 [Fantaisie-Impromptu]
TTITLE4=Etude No.3 In E Major Op.10-3 [Chanson De L'adieu]
TTITLE5=Etude No.5 In G Major Op.10-5 [Black Keys]
TTITLE6=Etude No.12 In C Minor Op.10-12 [Revolutionary]
TTITLE7=Etude No.23 In A Minor Op.25-11 [Winter Wind]
TTITLE8=Prelude No.15 In D Flat Major Op.28-15
TTITLE9=Nocturne No.1 In B Flat Minor Op.9-1
TTITLE10=Nocturne No.2 In B Flat Major Op.9-2
TTITLE11=Barcarolle In F Sharp Major Op.60
TTITLE12=Berceuse In D flat Major Op.57
TTITLE13=Mazurka No.5 In B Flat Major Op.7-1
TTITLE14=Polonaise No.3 In A major Op.40-1 [Military]
TTITLE15=Polonaise No.6 In A Flat Major Op.53 [Heroique]
EXTD=
EXTT0=
EXTT1=
EXTT2=
EXTT3=
EXTT4=
EXTT5=
EXTT6=
EXTT7=
EXTT8=
EXTT9=
EXTT10=
EXTT11=
EXTT12=
EXTT13=
EXTT14=
EXTT15=
PLAYORDER=
